<svg xmlns="http://www.w3.org/2000/svg" xmlns:xlink="http://www.w3.org/1999/xlink" width="400" zoomAndPan="magnify" viewBox="0 0 300 299.999988" height="400" preserveAspectRatio="xMidYMid meet" version="1.0"><defs><clipPath id="cc82f9efd6"><path d="M 17 17.960938 L 280 17.960938 L 280 281.960938 L 17 281.960938 Z M 17 17.960938 " clip-rule="nonzero"/></clipPath></defs><g clip-path="url(#cc82f9efd6)"><path fill="#a1a1a1" d="M 143.835938 17.960938 L 155.695312 17.960938 C 188.316406 19.636719 220.207031 33.445312 243.160156 56.800781 C 258.417969 71.675781 269.082031 90.585938 276.214844 110.566406 C 268.292969 115.136719 260.449219 119.753906 252.628906 124.5 C 245.417969 97.898438 228.332031 74.0625 204.59375 59.820312 C 180.878906 45.25 151.226562 40.554688 124.238281 47.535156 C 94.480469 54.871094 68.378906 75.8125 55.027344 103.433594 C 40.808594 131.6875 40.476562 166.386719 54.136719 194.917969 C 66.046875 220.710938 88.921875 241.09375 115.832031 250.179688 C 143.8125 259.851562 175.878906 256.957031 201.570312 242.210938 C 224.546875 229.339844 241.914062 207.6875 250.546875 182.910156 C 207.765625 158.464844 164.933594 134.070312 122.230469 109.5 C 122.433594 135.949219 122.410156 162.402344 122.230469 188.851562 C 136.777344 180.324219 151.503906 172.074219 165.949219 163.367188 C 173.71875 167.65625 181.464844 171.996094 189.207031 176.3125 C 167.09375 189.257812 144.878906 201.976562 122.664062 214.769531 C 114.894531 210.199219 107.097656 205.734375 99.304688 201.214844 C 99.683594 166.5625 99.507812 131.886719 99.40625 97.214844 C 107.148438 92.695312 114.917969 88.175781 122.6875 83.632812 C 175.089844 113.613281 227.441406 143.667969 279.84375 173.644531 C 273.675781 206.925781 254.429688 237.539062 226.882812 257.289062 C 206.953125 271.734375 182.9375 280.261719 158.382812 281.960938 L 141.984375 281.960938 C 118.5 280.589844 95.421875 272.925781 75.972656 259.675781 C 44.566406 238.480469 22.707031 203.371094 18.667969 165.574219 C 13.792969 127.167969 27.199219 87.007812 54.113281 59.160156 C 77.164062 34.359375 110.121094 19.6875 143.835938 17.960938 Z M 143.835938 17.960938 " fill-opacity="1" fill-rule="nonzero"/></g></svg>